<svg width="139" height="111" viewBox="0 0 139 111" fill="none" xmlns="http://www.w3.org/2000/svg">
<path d="M55.7583 15.8651L28.1223 0L0.998035 16.1267L28.3839 31.7075L55.7583 15.8651Z" fill="white"/>
<path d="M28.6244 62.9655L54.9997 47.7013L28.3694 32.4135L2.23511 47.9516L28.6244 62.9655Z" stroke="white"/>
<path d="M83.3743 62.5651L109.761 47.3008L83.1306 32.0131L56.9851 47.5513L83.3743 62.5651Z" stroke="white"/>
<path d="M138.788 95.1503L111.152 79.2852L84.0165 95.4118L111.402 110.993L138.788 95.1503Z" fill="white"/>
<path d="M73.8355 101.131L73.8373 101.13L83.3063 95.7059L56.678 80.3645L30.5442 95.9023L39.9529 101.255C45.12 104.193 50.9664 105.728 56.9107 105.707C62.8549 105.685 68.69 104.108 73.8355 101.131Z" stroke="white"/>
</svg>
