<svg width="147" height="155" viewBox="0 0 147 155" fill="none" xmlns="http://www.w3.org/2000/svg">
<path d="M58.707 17.0086L29.0791 0L-0.000175476 17.289L29.3595 33.9929L58.707 17.0086Z" fill="white"/>
<path d="M29.6181 67.5453L57.9665 51.1393L29.3443 34.708L1.25496 51.4084L29.6181 67.5453Z" stroke="white"/>
<path d="M88.314 67.1161L116.674 50.71L88.0522 34.2787L59.9509 50.9793L88.314 67.1161Z" stroke="white"/>
<path d="M146.748 137.569L117.12 120.56L88.0287 137.849L117.388 154.553L146.748 137.569Z" fill="white"/>
<path d="M77.1049 108.452L77.1068 108.451L87.3127 102.604L58.6924 86.1155L30.6036 102.816L40.7444 108.584C46.2893 111.738 52.5633 113.385 58.9423 113.362C65.3213 113.339 71.5831 111.646 77.1049 108.452Z" stroke="white"/>
</svg>
