<?xml version="1.0" encoding="utf-8"?>
<!-- Generator: Adobe Illustrator 27.0.0, SVG Export Plug-In . SVG Version: 6.00 Build 0)  -->
<svg version="1.1" id="Layer_2_00000056392402633900635760000015947129793515815599_"
	 xmlns="http://www.w3.org/2000/svg" xmlns:xlink="http://www.w3.org/1999/xlink" x="0px" y="0px" viewBox="0 0 344.4 188.9"
	 style="enable-background:new 0 0 344.4 188.9;" xml:space="preserve">
<style type="text/css">
	.st0{fill:#F75B11;}
	.st1{clip-path:url(#SVGID_00000054251066955161036290000008942554384716996781_);}
	.st2{fill:#FFFFFF;}
	.st3{fill:#0A083B;}
</style>
<g id="Layer_1-2">
	<path class="st0" d="M177.9,163.6l-72.5-94.2l44.2-45.6C158.1,15.4,164.2,9.2,176,0h-12.3c-6.1,9.2-11.8,15.1-21.2,24.5l-76,77.7
		V50.5c0-22,0.7-32.6,2.6-50.5H24.2c1.9,17.9,2.6,28.6,2.6,50.5v87.8c0,22-0.7,32.6-2.6,50.5h44.9c-1.9-17.9-2.6-28.6-2.6-50.5v-29
		l10.4-10.6l50.8,64.9c9,12,12.3,16.1,16.8,25.3H203C191.4,179.9,186,174,177.9,163.6L177.9,163.6z"/>
	<path class="st0" d="M215.2,0c1.9,17.9,2.6,28.6,2.6,50.5v87.8c0,22-0.9,32.6-3.1,50.5h120.9l8.7-18.4
		c-31.4,11.8-45.6,13.5-70.1,13.5h-16.8V50.5c0-22,0.7-32.6,2.6-50.5H215.2L215.2,0z"/>
	<g>
		<defs>
			<rect id="SVGID_1_" y="70.8" width="344.4" height="41.2"/>
		</defs>
		<clipPath id="SVGID_00000173161534862882054540000000406825569851857324_">
			<use xlink:href="#SVGID_1_"  style="overflow:visible;"/>
		</clipPath>
		<g style="clip-path:url(#SVGID_00000173161534862882054540000000406825569851857324_);">
			<path class="st2" d="M0,70.8h346.8v41.5H0V70.8z"/>
		</g>
	</g>
	<path class="st3" d="M10.6,96.6h6.5v2.3h-9V83.9h2.5L10.6,96.6L10.6,96.6z"/>
	<path class="st3" d="M38.7,86.2h-8.1v4h7.3v2.3h-7.3v4.1h8.4v2.3H28V83.9h10.7L38.7,86.2L38.7,86.2z"/>
	<path class="st3" d="M60.2,95.5h-7.5l-1.4,3.4h-2.6l6.6-14.9h2.6l6.5,14.9h-2.7L60.2,95.5L60.2,95.5z M59.2,93.3l-2.8-6.7l-2.8,6.7
		H59.2L59.2,93.3z"/>
	<path class="st3" d="M84.3,98.9l-2.7-4.5c-0.1,0-0.4,0-0.7,0h-3.5v4.5h-2.5V83.9h6.1c1.9,0,3.4,0.4,4.4,1.3
		c1.1,0.9,1.6,2.2,1.6,3.8c0,1.2-0.3,2.2-0.8,3c-0.5,0.8-1.3,1.4-2.3,1.8l3.3,5L84.3,98.9L84.3,98.9z M77.3,92.1h3.5
		c2.4,0,3.6-1,3.6-3s-1.2-2.9-3.6-2.9h-3.5V92.1z"/>
	<path class="st3" d="M111.8,98.9h-2.5l-8-10.7v10.7h-2.5V83.9h2.5l8,10.7V83.9h2.5C111.8,83.9,111.8,98.9,111.8,98.9z"/>
	<path class="st3" d="M153.6,98.9H151l-3.5-11.7l-3.6,11.7h-2.6l-5-14.9h2.7l3.6,12.2l3.6-12.1l2.5,0l3.6,12.2l3.6-12.2h2.6
		L153.6,98.9L153.6,98.9z"/>
	<path class="st3" d="M171.4,98.9h-2.5V83.9h2.5V98.9z"/>
	<path class="st3" d="M194.1,86.2h-4.8v12.7h-2.5V86.2h-4.7V84h12V86.2z"/>
	<path class="st3" d="M217.7,98.9h-2.5v-6.2h-7.9v6.2h-2.5V83.9h2.5v6.5h7.9v-6.5h2.5V98.9z"/>
	<path class="st3" d="M256.9,83.9v8.8c0,1.9-0.6,3.5-1.7,4.6c-1.1,1.1-2.7,1.7-4.8,1.7s-3.6-0.6-4.8-1.7c-1.2-1.1-1.7-2.7-1.7-4.6
		v-8.8h2.5v8.8c0,1.2,0.4,2.2,1.1,3c0.7,0.7,1.7,1.1,2.9,1.1s2.2-0.3,2.9-1.1c0.7-0.7,1.1-1.7,1.1-3v-8.8H256.9z"/>
	<path class="st3" d="M273.9,83.8c1.9,0,3.7,0.5,5.2,1.5l-1.1,2.2c-1.5-0.9-3-1.4-4.4-1.4c-0.8,0-1.4,0.1-1.8,0.4
		c-0.4,0.3-0.6,0.7-0.6,1.2s0.2,0.9,0.6,1.3c0.4,0.3,0.9,0.6,1.5,0.8c0.6,0.2,1.2,0.3,1.9,0.6c0.7,0.2,1.3,0.5,1.9,0.8
		c0.6,0.3,1.1,0.7,1.5,1.3c0.4,0.6,0.6,1.3,0.6,2.1c0,1.3-0.5,2.3-1.6,3.2c-1,0.8-2.4,1.2-4.1,1.2c-1.1,0-2.2-0.2-3.3-0.6
		c-1.1-0.4-2-1-2.8-1.8l1.1-2.2c0.8,0.7,1.6,1.2,2.5,1.6c0.9,0.4,1.8,0.6,2.6,0.6c0.9,0,1.5-0.2,2-0.5c0.5-0.3,0.8-0.8,0.8-1.3
		c0-0.5-0.2-0.9-0.6-1.3c-0.4-0.4-0.9-0.6-1.5-0.8c-0.6-0.2-1.2-0.4-1.9-0.6c-0.7-0.2-1.3-0.5-1.9-0.8c-0.6-0.3-1.1-0.7-1.5-1.3
		c-0.4-0.6-0.6-1.3-0.6-2.1c0-1.3,0.5-2.3,1.5-3C271,84.2,272.3,83.8,273.9,83.8L273.9,83.8z"/>
</g>
</svg>
