<?xml version="1.0" encoding="UTF-8"?>
<svg version="1.1" xmlns="http://www.w3.org/2000/svg" width="841" height="328">
<path d="M0 0 C277.53 0 555.06 0 841 0 C841 108.24 841 216.48 841 328 C563.47 328 285.94 328 0 328 C0 219.76 0 111.52 0 0 Z " fill="#FEFEFE" transform="translate(0,0)"/>
<path d="M0 0 C76.56 0 153.12 0 232 0 C243.12343322 25.9546775 244.77626337 56.08326908 244 84 C246.64 84 249.28 84 252 84 C250.42903279 89.02709507 247.38006951 93.02866469 244 97 C243.67 97 243.34 97 243 97 C243 92.71 243 88.42 243 84 C236.73 84 230.46 84 224 84 C223.34 85.65 222.68 87.3 222 89 C220.50103289 91.17666105 218.97623664 93.27679789 217.375 95.375 C211.52344129 103.17540401 205.98428882 111.17900432 200.48388672 119.22998047 C199.83049316 120.1788916 199.17709961 121.12780273 198.50390625 122.10546875 C197.63487671 123.37620239 197.63487671 123.37620239 196.74829102 124.67260742 C195 127 195 127 191 131 C191 115.49 191 99.98 191 84 C183.41 84 175.82 84 168 84 C168 120.3 168 156.6 168 194 C175.59 194 183.18 194 191 194 C191 176.18 191 158.36 191 140 C193.92994405 143.66243006 196.56521546 147.22501021 199.15234375 151.11328125 C199.5343544 151.68652634 199.91636505 152.25977142 200.30995178 152.85038757 C201.11357505 154.05732462 201.91608432 155.26500407 202.7175293 156.47338867 C203.92819739 158.29847627 205.14250083 160.12110085 206.35742188 161.94335938 C218 179.42978101 218 179.42978101 218 182 C218.66 182 219.32 182 220 182 C220.391875 180.7625 220.78375 179.525 221.1875 178.25 C222.80755769 173.29591054 224.90979908 168.61603474 227.109375 163.89453125 C228.22571388 160.26642988 228.15989948 158.63137759 227 155 C225.19075945 151.95822353 223.12016216 149.14345386 221 146.3125 C219.89264644 144.81093877 218.78834018 143.30712415 217.6875 141.80078125 C217.19636719 141.14247314 216.70523438 140.48416504 216.19921875 139.8059082 C215 138 215 138 214 135 C215.16479492 132.9855957 215.16479492 132.9855957 216.98046875 130.67578125 C217.64498047 129.81879639 218.30949219 128.96181152 218.99414062 128.07885742 C220.07985352 126.7095105 220.07985352 126.7095105 221.1875 125.3125 C222.66073464 123.41972088 224.13338447 121.52648644 225.60546875 119.6328125 C226.34458496 118.68825195 227.08370117 117.74369141 227.84521484 116.77050781 C230.94815177 112.78091703 233.97870586 108.73906711 237 104.6875 C237.97911362 103.37886656 238.95827458 102.07026854 239.9375 100.76171875 C240.618125 99.85035156 241.29875 98.93898438 242 98 C247.00970193 108.01940386 237.87762648 134.62450895 234.52734375 144.6953125 C233.68249159 147.13219653 232.77209633 149.51465536 231.8203125 151.9140625 C230.79840144 155.7583946 231.00339518 158.15104344 232 162 C233.38828056 164.30237476 234.73183235 166.27947869 236.375 168.375 C237.27955103 169.58201341 238.18043261 170.7917832 239.078125 172.00390625 C239.55185547 172.64215332 240.02558594 173.28040039 240.51367188 173.93798828 C243.18354848 177.64195967 245.65241629 181.47517326 248.125 185.3125 C248.6101709 186.05999512 249.0953418 186.80749023 249.59521484 187.57763672 C253 192.86890682 253 192.86890682 253 194 C248.62614201 194.26210888 244.25430191 194.42144886 239.875 194.5625 C238.01875 194.67561523 238.01875 194.67561523 236.125 194.79101562 C227.08994001 195.00960579 227.08994001 195.00960579 223.79394531 191.95654297 C222.28287065 189.68993098 221.06035339 187.50586179 220 185 C216.90674565 187.89982407 215.20674942 191.19259562 213.3125 194.9375 C207.37152203 206.35061226 200.10104583 217.0022104 192 227 C191.67 227 191.34 227 191 227 C191 223.37 191 219.74 191 216 C183.41 216 175.82 216 168 216 C168.33 227.88 168.66 239.76 169 252 C171.536875 249.31875 174.07375 246.6375 176.6875 243.875 C177.47729248 243.04210449 178.26708496 242.20920898 179.08081055 241.35107422 C182.13180716 238.11761188 185.14375027 234.88927863 187.95703125 231.4453125 C188.63121094 230.63835937 189.30539063 229.83140625 190 229 C190.33 229 190.66 229 191 229 C191 254.41 191 279.82 191 306 C202.22 306 213.44 306 225 306 C225 312.6 225 319.2 225 326 C206.19 326 187.38 326 168 326 C167.67 302.57 167.34 279.14 167 255 C164.36 257.31 161.72 259.62 159 262 C156.51226342 263.99979638 154.02119899 265.98167718 151.5 267.9375 C150.86835938 268.43056641 150.23671875 268.92363281 149.5859375 269.43164062 C148.05891686 270.62317946 146.52970071 271.81190381 145 273 C141.96017053 271.68472791 140.32830328 270.49276535 138.4765625 267.75390625 C138.02007324 267.09108643 137.56358398 266.4282666 137.09326172 265.74536133 C136.36647217 264.66484497 136.36647217 264.66484497 135.625 263.5625 C134.55919745 262.01431129 133.49141099 260.46748689 132.421875 258.921875 C131.86435547 258.11427734 131.30683594 257.30667969 130.73242188 256.47460938 C127.85531243 252.3649164 124.86509707 248.34034383 121.875 244.3125 C117.03451439 237.77492293 112.2570234 231.19939218 107.54296875 224.5703125 C100.0657213 214.05774678 92.47881132 203.62531786 84.8125 193.25 C79.99607657 186.73130497 75.23977094 180.1755176 70.54296875 173.5703125 C63.0657213 163.05774678 55.47881132 152.62531786 47.8125 142.25 C42.99607657 135.73130497 38.23977094 129.1755176 33.54296875 122.5703125 C25.37179927 111.08213363 17.0737849 99.68663158 8.66894531 88.3684082 C8.1169043 87.62292725 7.56486328 86.87744629 6.99609375 86.109375 C6.51325928 85.45936523 6.0304248 84.80935547 5.53295898 84.13964844 C-10.83675815 61.29139219 0 28.10712459 0 0 Z " fill="#F26723" transform="translate(0,0)"/>
<path d="M0 0 C18.81 0 37.62 0 57 0 C57 6.27 57 12.54 57 19 C45.78 19 34.56 19 23 19 C23 27.25 23 35.5 23 44 C34.22 44 45.44 44 57 44 C57 49.94 57 55.88 57 62 C45.78 62 34.56 62 23 62 C23 71.24 23 80.48 23 90 C34.22 90 45.44 90 57 90 C57.33 87.36 57.66 84.72 58 82 C58.87280273 78.98168945 58.87280273 78.98168945 59.93359375 76.11328125 C60.33006104 75.0250708 60.72652832 73.93686035 61.13500977 72.81567383 C61.56483154 71.65962646 61.99465332 70.5035791 62.4375 69.3125 C63.35308493 66.80262284 64.26716048 64.29223639 65.1796875 61.78125 C65.4139595 61.13916092 65.64823151 60.49707184 65.88960266 59.83552551 C68.36931497 53.02500457 70.71840151 46.17073103 73.0625 39.3125 C77.57164067 26.15719586 82.25976947 13.07386163 87 0 C95.25 0 103.5 0 112 0 C118.65073315 18.13524659 125.20844889 36.29061819 131.453125 54.5703125 C134.93426846 64.72542733 138.47326236 74.86062928 142 85 C142.495 42.925 142.495 42.925 143 0 C193.76785714 0 193.76785714 0 203.80078125 9.75 C210.72840517 17.09356822 212.52093037 23.97894786 212.4375 33.9375 C212.45748047 34.77990234 212.47746094 35.62230469 212.49804688 36.49023438 C212.49318414 42.80692455 210.95042119 47.45213938 208 53 C207.443125 54.051875 206.88625 55.10375 206.3125 56.1875 C200.72045653 62.98863395 193.49005973 66.32064753 185 68 C178.4 68 171.8 68 165 68 C165 81.86 165 95.72 165 110 C152.13 110 139.26 110 126 110 C124.845 106.57625 123.69 103.1525 122.5 99.625 C122.13455078 98.54686035 121.76910156 97.4687207 121.39257812 96.35791016 C120.9662207 95.08633057 120.9662207 95.08633057 120.53125 93.7890625 C120.23798828 92.91975098 119.94472656 92.05043945 119.64257812 91.15478516 C119 89 119 89 119 87 C105.8 87 92.6 87 79 87 C78.01 90.96 77.02 94.92 76 99 C74.68 102.63 73.36 106.26 72 110 C48.24 110 24.48 110 0 110 C0 73.7 0 37.4 0 0 Z " fill="#F26824" transform="translate(256,84)"/>
<path d="M0 0 C75.57 0 151.14 0 229 0 C225.96160927 2.02559382 223.45920489 2.95778907 220.00097656 4.08789062 C218.13931854 4.69993347 218.13931854 4.69993347 216.24005127 5.32434082 C214.87361094 5.76841856 213.50713444 6.21238498 212.140625 6.65625 C210.71689602 7.12230004 209.29329405 7.58873823 207.86981201 8.05554199 C204.09530524 9.29206679 200.31898582 10.52296522 196.54229736 11.75280762 C192.82519921 12.96442504 189.10997984 14.18177332 185.39453125 15.3984375 C168.31566648 20.98758035 151.21870926 26.51976247 134.11401367 32.0293026 C121.76620428 36.00750779 109.42390422 40.00279605 97.08239365 44.0004921 C92.96967921 45.33266798 88.85670693 46.66403648 84.74316406 47.99365234 C80.6608824 49.31318682 76.57923759 50.63467402 72.49802399 51.95750809 C70.97224034 52.45170269 69.44624136 52.94523306 67.9200058 53.43803024 C60.30541305 55.89715797 52.71874591 58.39526953 45.21994019 61.19345093 C41.97492645 62.37242991 38.69845724 63.31243522 35.375 64.25 C26.55879477 66.77439555 17.838243 69.5831341 9.11474609 72.40917969 C7.55747803 72.91239746 7.55747803 72.91239746 5.96875 73.42578125 C5.03482422 73.72911377 4.10089844 74.03244629 3.13867188 74.3449707 C1 75 1 75 0 75 C0 50.25 0 25.5 0 0 Z " fill="#FEFEFE" transform="translate(0,0)"/>
<path d="M0 0 C1.10794922 -0.02449219 2.21589844 -0.04898438 3.35742188 -0.07421875 C17.80370873 -0.12487785 30.01980044 4.99760733 40.28125 15.08007812 C42.66082156 17.47929238 44.99579745 19.91499626 47.3125 22.375 C43.88096086 25.90691322 40.33874938 29.0887505 36.5 32.1875 C35.52417969 32.97769531 34.54835938 33.76789063 33.54296875 34.58203125 C32.80691406 35.17371094 32.07085938 35.76539063 31.3125 36.375 C28.00078611 34.95256782 26.0839739 33.22921457 23.6875 30.5625 C16.75334561 23.60299221 10.50748126 20.92790328 0.75 20.875 C-9.22332514 21.0808366 -17.44087132 23.09779483 -24.6875 30.375 C-27.0704769 33.54511406 -28.9396942 36.81949474 -30.6875 40.375 C-31.02910156 41.06207031 -31.37070312 41.74914062 -31.72265625 42.45703125 C-35.54821783 51.76293222 -34.91858326 63.06457548 -31.5625 72.375 C-27.22487728 82.1923646 -22.00005525 88.4374778 -11.9453125 92.4765625 C-3.24032697 94.87721798 6.71483557 94.69563196 14.9375 90.875 C22.05910691 86.73703335 26.26780307 81.98674233 29.3125 74.375 C20.7325 74.375 12.1525 74.375 3.3125 74.375 C3.3125 67.775 3.3125 61.175 3.3125 54.375 C20.4725 54.375 37.6325 54.375 55.3125 54.375 C55.3125 74.505 55.3125 94.635 55.3125 115.375 C47.38131482 115.45937431 39.45179805 115.53945072 31.52055359 115.58200073 C27.82551452 115.60294007 24.13085513 115.63081701 20.43603516 115.67675781 C-3.77542973 115.96977347 -24.604497 115.79774109 -43.17578125 98.07421875 C-56.04913173 84.23987165 -58.36258443 67.86429299 -57.81494141 49.76855469 C-57.11331633 36.59090671 -50.40636745 23.26923628 -40.6875 14.375 C-28.35576617 4.28539959 -15.71706134 0.01797263 0 0 Z " fill="#F26824" transform="translate(785.6875,212.625)"/>
<path d="M0 0 C23 0 23 0 28.1875 4.9375 C29.14458815 6.64187619 30.09872486 8.3494304 30.97607422 10.09619141 C32.89424479 13.66268977 35.37445955 16.85377016 37.75 20.125 C38.77822567 21.5844012 39.80423499 23.04536622 40.828125 24.5078125 C44.0135522 29.03332958 47.25171599 33.51947438 50.5 38 C55.34506735 44.68385359 60.13397684 51.40439177 64.8671875 58.16796875 C68.15739939 62.85628768 71.55884771 67.41179694 75 72 C75.33 48.24 75.66 24.48 76 0 C83.59 0 91.18 0 99 0 C99 36.3 99 72.6 99 110 C91.41 110 83.82 110 76 110 C68.04288321 101.20529197 68.04288321 101.20529197 65.8984375 97.1328125 C63.12331856 92.11719591 59.92065593 87.59096039 56.5 83 C55.41420601 81.50178021 54.33087355 80.00177345 53.25 78.5 C52.71375 77.7575 52.1775 77.015 51.625 76.25 C42.41666667 63.5 33.20833333 50.75 24 38 C23.67 61.76 23.34 85.52 23 110 C15.41 110 7.82 110 0 110 C0 73.7 0 37.4 0 0 Z " fill="#F26824" transform="translate(477,216)"/>
<path d="M0 0 C22 0 22 0 27.5625 5.3125 C28.85229492 7.18554688 28.85229492 7.18554688 29.73046875 8.90625 C32.28473081 13.61043594 35.32124552 17.9220898 38.375 22.3125 C39.48500455 23.95009428 40.59438029 25.58811497 41.703125 27.2265625 C44.72287497 31.64263634 47.88532557 35.9311052 51.125 40.1875 C56.06950425 46.6850388 60.74886568 53.32958012 65.33203125 60.0859375 C68.51302228 64.75263297 71.76124477 69.37320682 75 74 C75.33 49.58 75.66 25.16 76 0 C83.26 0 90.52 0 98 0 C98 36.3 98 72.6 98 110 C90.41 110 82.82 110 75 110 C68.73216695 103.45359659 68.73216695 103.45359659 67.23046875 100.2421875 C64.84989175 95.54238293 61.82871363 91.46552522 58.6875 87.25 C57.57444712 85.71526189 56.4637872 84.17878559 55.35546875 82.640625 C54.80036621 81.87298828 54.24526367 81.10535156 53.67333984 80.31445312 C50.9473686 76.54406978 48.22381431 72.77194168 45.5 69 C44.97124268 68.26797363 44.44248535 67.53594727 43.89770508 66.78173828 C41.0634604 62.85792891 38.23026142 58.93336938 35.3984375 55.0078125 C34.80869141 54.19054687 34.21894531 53.37328125 33.61132812 52.53125 C32.48212022 50.96636346 31.35319839 49.40127044 30.22460938 47.8359375 C29.71478516 47.12953125 29.20496094 46.423125 28.6796875 45.6953125 C28.23351074 45.07672363 27.78733398 44.45813477 27.32763672 43.82080078 C25.90317999 41.86721523 24.45065725 39.93420966 23 38 C22.67 61.76 22.34 85.52 22 110 C14.74 110 7.48 110 0 110 C0 73.7 0 37.4 0 0 Z " fill="#F26722" transform="translate(622,216)"/>
<path d="M0 0 C50.46781116 0 50.46781116 0 60.94140625 9.8203125 C67.83006024 17.15478752 69.61459137 23.66772384 69.34765625 33.68359375 C68.57831384 41.02260165 66.07943754 47.97341414 60.9921875 53.4296875 C56.79229522 56.74019083 51.86702504 58.8500035 47 61 C54.02704724 72.87213801 61.22346246 84.59633541 68.78222656 96.13720703 C70.59857017 98.91561556 72.39630146 101.70529867 74.1875 104.5 C74.73792969 105.3559375 75.28835938 106.211875 75.85546875 107.09375 C77 109 77 109 77 110 C70.16118506 110.59995833 63.3542175 110.93911933 56.48828125 110.765625 C55.36204346 110.74016602 54.23580566 110.71470703 53.07543945 110.68847656 C49.10124853 109.79880296 47.68497477 108.21809509 45.1875 105.0625 C44.42499732 103.19539883 43.67070911 101.3236884 42.99121094 99.42480469 C40.80977596 94.08834849 37.67719552 89.17896528 34.8125 84.1875 C33.11245188 81.12640214 31.41816524 78.06219302 29.72583008 74.99682617 C27.58149123 71.27327837 25.27733072 67.64372915 23 64 C22.67 79.18 22.34 94.36 22 110 C14.74 110 7.48 110 0 110 C0 73.7 0 37.4 0 0 Z " fill="#F26723" transform="translate(397,216)"/>
<path d="M0 0 C8.25 0 16.5 0 25 0 C32.15155398 19.50088688 39.14964021 39.03797222 45.86816406 58.69287109 C47.6086775 63.77850418 49.36310149 68.85923981 51.125 73.9375 C51.60018066 75.30914307 51.60018066 75.30914307 52.08496094 76.70849609 C53.77288568 81.55717654 55.50045785 86.38876015 57.2734375 91.20703125 C57.83200439 92.72598999 57.83200439 92.72598999 58.40185547 94.27563477 C59.11752936 96.21406408 59.83769061 98.15084437 60.56298828 100.08569336 C60.88251465 100.9494458 61.20204102 101.81319824 61.53125 102.703125 C61.95760742 103.84249512 61.95760742 103.84249512 62.39257812 105.00488281 C63 107 63 107 63 110 C55.08 110 47.16 110 39 110 C37.845 106.57625 36.69 103.1525 35.5 99.625 C35.13455078 98.54686035 34.76910156 97.4687207 34.39257812 96.35791016 C33.9662207 95.08633057 33.9662207 95.08633057 33.53125 93.7890625 C33.23798828 92.91975098 32.94472656 92.05043945 32.64257812 91.15478516 C32 89 32 89 32 87 C18.8 87 5.6 87 -8 87 C-8.99 90.96 -9.98 94.92 -11 99 C-12.21643538 102.72660471 -13.60153536 106.33505819 -15 110 C-22.59 110 -30.18 110 -38 110 C-37.32316142 106.6158071 -36.66003678 103.75554514 -35.5480957 100.55322266 C-35.25249756 99.69705353 -34.95689941 98.8408844 -34.65234375 97.95877075 C-34.33007812 97.03651703 -34.0078125 96.11426331 -33.67578125 95.1640625 C-33.33764404 94.18871552 -32.99950684 93.21336853 -32.65112305 92.20846558 C-31.54180977 89.01272648 -30.42737856 85.81880143 -29.3125 82.625 C-28.54251096 80.41212708 -27.77257326 78.1992363 -27.00268555 75.98632812 C-20.87645067 58.40388299 -14.61912811 40.870181 -8.28852844 23.36044312 C-5.48285419 15.58867609 -2.74202797 7.79443034 0 0 Z " fill="#F26925" transform="translate(330,216)"/>
<path d="M0 0 C20.13 0 40.26 0 61 0 C61 6.27 61 12.54 61 19 C48.13 19 35.26 19 22 19 C22 27.25 22 35.5 22 44 C34.87 44 47.74 44 61 44 C61 50.27 61 56.54 61 63 C48.13 63 35.26 63 22 63 C22 71.91 22 80.82 22 90 C34.87 90 47.74 90 61 90 C61 96.6 61 103.2 61 110 C40.87 110 20.74 110 0 110 C0 73.7 0 37.4 0 0 Z " fill="#F26723" transform="translate(229,216)"/>
<path d="M0 0 C7.26 0 14.52 0 22 0 C22 36.3 22 72.6 22 110 C14.74 110 7.48 110 0 110 C0 73.7 0 37.4 0 0 Z " fill="#F26722" transform="translate(588,216)"/>
<path d="M0 0 C16 0 16 0 22 4 C25.74364728 8.26001242 26.30051071 12.08614265 26.2109375 17.5859375 C25.74212204 22.95126997 24.55819831 26.65320359 20.4375 30.21484375 C16.08777706 32.47373396 12.92074726 32.45968057 8.125 32.25 C5.44375 32.1675 2.7625 32.085 0 32 C0 21.44 0 10.88 0 0 Z " fill="#FEF9F6" transform="translate(420,102)"/>
<path d="M0 0 C0.33 0 0.66 0 1 0 C1 15.84 1 31.68 1 48 C-15.5 48 -32 48 -49 48 C-49 47.67 -49 47.34 -49 47 C-48.10861328 46.85304688 -48.10861328 46.85304688 -47.19921875 46.703125 C-31.39629977 43.8522096 -19.15859389 37.39798443 -9.4375 24.375 C-4.34238389 16.93169995 -1.97364918 8.71695053 0 0 Z " fill="#FEFCFB" transform="translate(840,280)"/>
<path d="M0 0 C14.95132743 0 14.95132743 0 20.5 4.5 C23.87652959 7.87652959 24.19035351 9.52664692 24.3125 14.1875 C24.2619054 19.69508376 23.3433601 22.63505765 20 27 C16.28426409 29.6885493 12.13342365 29.22490457 7.75 29.125 C5.1925 29.08375 2.635 29.0425 0 29 C0 19.43 0 9.86 0 0 Z " fill="#FEFCFC" transform="translate(419,234)"/>
<path d="M0 0 C0.66 0 1.32 0 2 0 C3.71619335 5.47873426 5.42498065 10.9597024 7.12695312 16.44287109 C7.70695387 18.30776163 8.28897155 20.17202612 8.87304688 22.03564453 C9.71234998 24.7148485 10.54436819 27.3962219 11.375 30.078125 C11.76872803 31.32677338 11.76872803 31.32677338 12.17041016 32.60064697 C12.41065918 33.38115417 12.6509082 34.16166138 12.8984375 34.96582031 C13.11161621 35.64976868 13.32479492 36.33371704 13.54443359 37.03839111 C14 39 14 39 14 43 C5.42 43 -3.16 43 -12 43 C-11.28298778 37.26390225 -10.55385341 33.02426919 -8.8125 27.6875 C-8.36709296 26.30602006 -7.92178515 24.92450813 -7.4765625 23.54296875 C-7.23969727 22.8164209 -7.00283203 22.08987305 -6.75878906 21.34130859 C-5.37436599 17.06955273 -4.03530485 12.78341804 -2.6875 8.5 C-1.79241738 5.66642879 -0.89616291 2.83322981 0 0 Z " fill="#FEF8F5" transform="translate(341,242)"/>
<path d="M0 0 C0.66 0 1.32 0 2 0 C3.71619335 5.47873426 5.42498065 10.9597024 7.12695312 16.44287109 C7.70695387 18.30776163 8.28897155 20.17202612 8.87304688 22.03564453 C9.71234998 24.7148485 10.54436819 27.3962219 11.375 30.078125 C11.76872803 31.32677338 11.76872803 31.32677338 12.17041016 32.60064697 C12.41065918 33.38115417 12.6509082 34.16166138 12.8984375 34.96582031 C13.11161621 35.64976868 13.32479492 36.33371704 13.54443359 37.03839111 C14 39 14 39 14 43 C5.42 43 -3.16 43 -12 43 C-11.28298778 37.26390225 -10.55385341 33.02426919 -8.8125 27.6875 C-8.36709296 26.30602006 -7.92178515 24.92450813 -7.4765625 23.54296875 C-7.23969727 22.8164209 -7.00283203 22.08987305 -6.75878906 21.34130859 C-5.37436599 17.06955273 -4.03530485 12.78341804 -2.6875 8.5 C-1.79241738 5.66642879 -0.89616291 2.83322981 0 0 Z " fill="#FEF8F5" transform="translate(354,110)"/>
<path d="M0 0 C0.33 0 0.66 0 1 0 C1 7.26 1 14.52 1 22 C3.64 22 6.28 22 9 22 C7.42903279 27.02709507 4.38006951 31.02866469 1 35 C0.67 35 0.34 35 0 35 C0 30.71 0 26.42 0 22 C-5.94 22 -11.88 22 -18 22 C-18 21.67 -18 21.34 -18 21 C-12.06 21 -6.12 21 0 21 C0 14.07 0 7.14 0 0 Z " fill="#F48044" transform="translate(243,62)"/>
</svg>
