<svg width="199" height="156" viewBox="0 0 199 156" fill="none" xmlns="http://www.w3.org/2000/svg">
<path d="M8.06939 29.701L16.5536 34.5241L46.3545 16.9559L16.5411 0L7.98193 4.99806C5.82005 6.25895 4.02781 8.06626 2.78508 10.2386C1.54234 12.411 0.892811 14.872 0.901672 17.3747C0.910534 19.8774 1.57747 22.3338 2.83556 24.4973C4.09365 26.6608 5.89863 28.4554 8.06939 29.701Z" fill="white"/>
<path d="M78.7473 73.9887L107.824 57.1612L78.4664 40.3078L49.6555 57.4373L78.7473 73.9887Z" stroke="white"/>
<path d="M78.7473 108.825L107.824 91.998L78.4664 75.1446L49.6555 92.2741L78.7473 108.825Z" stroke="white"/>
<path d="M198.177 39.4307L167.814 22L138 39.7181L168.088 56.8364L198.177 39.4307Z" fill="white"/>
<path d="M169.002 91.9962L138.639 74.5655L108.825 92.2836L138.914 109.402L169.002 91.9962Z" fill="white"/>
<path d="M127.432 150.29L127.433 150.289L137.911 144.287L108.556 127.374L79.7454 144.504L90.1563 150.426C95.8408 153.659 102.273 155.348 108.812 155.324C115.351 155.3 121.771 153.565 127.432 150.29Z" stroke="white"/>
</svg>
